<?xml version="1.0" encoding="UTF-8"?>
<!DOCTYPE svg PUBLIC "-//W3C//DTD SVG 1.1//EN" "http://www.w3.org/Graphics/SVG/1.1/DTD/svg11.dtd">
<svg xmlns="http://www.w3.org/2000/svg" version="1.1" width="78px" height="78px" style="shape-rendering:geometricPrecision; text-rendering:geometricPrecision; image-rendering:optimizeQuality; fill-rule:evenodd; clip-rule:evenodd" xmlns:xlink="http://www.w3.org/1999/xlink">
<g><path style="opacity:0.319" fill="#fd4f4f" d="M 20.5,18.5 C 20.5,19.8333 19.8333,20.5 18.5,20.5C 18.8333,19.5 19.5,18.8333 20.5,18.5 Z"/></g>
<g><path style="opacity:0.993" fill="#f95151" d="M 20.5,18.5 C 22.1992,18.3398 23.8659,18.5065 25.5,19C 29.6816,23.3487 34.0149,27.5154 38.5,31.5C 42.9851,27.5154 47.3184,23.3487 51.5,19C 57.6667,17.1667 59.8333,19.3333 58,25.5C 53.6513,29.6816 49.4846,34.0149 45.5,38.5C 49.4846,42.9851 53.6513,47.3184 58,51.5C 59.8333,57.6667 57.6667,59.8333 51.5,58C 47.3184,53.6513 42.9851,49.4846 38.5,45.5C 34.0149,49.4846 29.6816,53.6513 25.5,58C 19.3333,59.8333 17.1667,57.6667 19,51.5C 23.3487,47.3184 27.5154,42.9851 31.5,38.5C 27.5154,34.0149 23.3487,29.6816 19,25.5C 18.5065,23.8659 18.3398,22.1992 18.5,20.5C 19.8333,20.5 20.5,19.8333 20.5,18.5 Z"/></g>
</svg>
